<?xml version="1.0" encoding="utf-8"?>
<!-- Generator: Adobe Illustrator 24.0.3, SVG Export Plug-In . SVG Version: 6.00 Build 0)  -->
<svg version="1.1" id="Capa_1" xmlns="http://www.w3.org/2000/svg" xmlns:xlink="http://www.w3.org/1999/xlink" x="0px" y="0px"
	 viewBox="0 0 296.3 378.5" style="enable-background:new 0 0 296.3 378.5;" xml:space="preserve">
<style type="text/css">
	.st0{fill:white;}
	.st1{fill:#0863AE;}
	.st2{fill:#E73439;}
</style>
<g>
	<g>
		<g>
			<path class="st0" d="M145.3,255.5c-1.7,0.8-3.2,1.2-4.8,1.2c-3.8,0-5.6-2.7-5.6-6.8c0-3.9,1.9-6.5,5.9-6.5c2,0,3.2,0.5,4.2,1.1
				l-1.1,1.9c-0.7-0.5-1.8-0.8-3.1-0.8c-2.3,0-3.3,1.7-3.3,4.3c0,3,1.1,4.7,3.3,4.7c0.8,0,1.6-0.2,2.2-0.5v-2.4h-1.8l-0.1-1.8h4.2
				V255.5z"/>
			<path class="st0" d="M155.7,251.8c0,3.2-1.6,4.9-4.4,4.9c-2.8,0-4.4-1.7-4.4-4.9c0-2.7,1.5-4.8,4.4-4.8
				C154.1,247,155.7,249.1,155.7,251.8 M153.1,251.8c0-2.2-0.7-3-1.8-3c-1.2,0-1.8,0.8-1.8,3c0,2.2,0.6,3,1.8,3
				C152.5,254.8,153.1,254,153.1,251.8"/>
			<path class="st0" d="M159.8,248.1c0.4-0.6,1.4-1.1,2.5-1.1c2.2,0,3.8,1.6,3.8,4.8c0,3.2-1.9,4.9-4.1,4.9c-1.3,0-2.1-0.5-2.7-1.3
				l-0.5,1.1h-1.3v-13.1h2.5v3.2L159.8,248.1z M160,253.9c0.4,0.5,1,0.9,1.7,0.9c1.1,0,1.9-0.8,1.9-3c0-2.2-0.7-3-1.8-3
				c-0.6,0-1.3,0.3-1.7,0.7V253.9z"/>
			<path class="st0" d="M168.7,256.5V249l-1.1-0.2v-1.6h3.5v9.3H168.7z M168.6,243.4h2.5v2.3h-2.5V243.4z"/>
			<path class="st0" d="M175.5,252.5c0,1.5,0.8,2.3,2.4,2.3c1,0,1.9-0.4,2.7-0.8l0.5,1.7c-0.8,0.4-2,0.9-3.5,0.9
				c-2.9,0-4.6-1.8-4.6-4.9c0-2.9,1.4-4.8,4.3-4.8c2.8,0,3.9,2.1,3.9,4.4v1.1H175.5z M177.2,248.8c-1.2,0-1.7,1.1-1.7,2.2h3.4
				C178.9,249.8,178.5,248.8,177.2,248.8"/>
			<path class="st0" d="M188.4,249.2c-0.3-0.1-0.7-0.1-1.2-0.1c-0.7,0-1.2,0.3-1.7,0.6v6.7h-2.5v-9.3h1.7c0.1,0.4,0.2,0.8,0.3,1.2
				h0.1c0.3-0.7,1.1-1.4,2.2-1.4c0.5,0,0.9,0.1,1.1,0.1C188.5,247.8,188.5,248.5,188.4,249.2"/>
			<path class="st0" d="M195.7,256.5v-5.5c0-1.4-0.5-2.1-1.7-2.1c-0.6,0-1.2,0.3-1.6,0.6v7h-2.5v-9.3h1.7l0.4,1.1
				c0.5-0.6,1.6-1.3,2.9-1.3c2.4,0,3.3,1.4,3.3,3.7v5.7H195.7z"/>
			<path class="st0" d="M208.6,251.8c0,3.2-1.6,4.9-4.4,4.9c-2.8,0-4.4-1.7-4.4-4.9c0-2.7,1.5-4.8,4.4-4.8
				C207.1,247,208.6,249.1,208.6,251.8 M206.1,251.8c0-2.2-0.7-3-1.8-3c-1.2,0-1.8,0.8-1.8,3c0,2.2,0.6,3,1.8,3
				C205.5,254.8,206.1,254,206.1,251.8"/>
			<path class="st0" d="M220.7,247.9c-0.2-0.5-0.2-1-0.2-1.7v-2.8h2.5v13.1h-2l-0.3-1c-0.4,0.6-1.3,1.2-2.5,1.2
				c-2.1,0-3.8-1.5-3.8-4.8c0-3.1,1.7-4.8,4-4.8C219.4,247,220.1,247.3,220.7,247.9 M220.4,249.3c-0.4-0.2-1-0.5-1.7-0.5
				c-1.2,0-1.9,0.8-1.9,3c0,2.2,0.7,3.1,1.9,3.1c0.6,0,1.2-0.3,1.7-0.8V249.3z"/>
			<path class="st0" d="M227.3,252.5c0,1.5,0.8,2.3,2.4,2.3c1,0,1.9-0.4,2.7-0.8l0.5,1.7c-0.8,0.4-2,0.9-3.5,0.9
				c-2.9,0-4.6-1.8-4.6-4.9c0-2.9,1.4-4.8,4.3-4.8c2.8,0,3.9,2.1,3.9,4.4v1.1H227.3z M229,248.8c-1.2,0-1.7,1.1-1.7,2.2h3.4
				C230.7,249.8,230.3,248.8,229,248.8"/>
			<path class="st0" d="M244.3,256.7c-3.6,0-5.5-2.4-5.5-6.7c0-3.9,1.9-6.6,5.5-6.6c1.7,0,3.3,0.4,4.4,1.1l-0.9,2
				c-0.7-0.5-1.8-0.9-3.1-0.9c-2.1,0-3.2,1.6-3.2,4.4c0,3,1.1,4.5,3.1,4.5c1.3,0,2.5-0.5,3.4-1.2l0.8,2
				C247.5,256.2,246,256.7,244.3,256.7"/>
			<path class="st0" d="M250.4,256.5v-13.1h2.5v3.4c0,0.6-0.2,1.3-0.2,1.4c0.5-0.6,1.3-1.3,2.6-1.3c2.7,0,3.4,1.4,3.4,3.7v5.7h-2.5
				v-5.5c0-0.2,0-0.4-0.1-0.6c-0.1-1-0.6-1.5-1.5-1.5c-0.6,0-1.2,0.3-1.6,0.6v7H250.4z"/>
			<path class="st0" d="M261.5,256.5V249l-1.1-0.2v-1.6h3.5v9.3H261.5z M261.4,243.4h2.5v2.3h-2.5V243.4z"/>
			<path class="st0" d="M266.3,254v-10.6h2.4v10.5c0,0.8,0.5,0.9,1.5,0.9v1.7c0,0-0.7,0.1-1.4,0.1
				C266.9,256.7,266.3,255.6,266.3,254"/>
			<path class="st0" d="M274,252.5c0,1.5,0.8,2.3,2.4,2.3c1,0,1.9-0.4,2.7-0.8l0.5,1.7c-0.8,0.4-2,0.9-3.5,0.9
				c-2.9,0-4.6-1.8-4.6-4.9c0-2.9,1.4-4.8,4.3-4.8c2.8,0,3.9,2.1,3.9,4.4v1.1H274z M275.7,248.8c-1.2,0-1.7,1.1-1.7,2.2h3.4
				C277.4,249.8,277,248.8,275.7,248.8"/>
			<path class="st0" d="M292.7,3.3H4.6H0v4.6l0,261.9v4.6h4.6h288h4.6v-4.6l0-261.9V3.3H292.7z M4.6,7.9h115.7l0,261.9H4.6L4.6,7.9z
				 M292.7,269.8H124.9l0-261.9h167.7L292.7,269.8z"/>
		</g>
		<g>
			<g>
				<g>
					<path class="st0" d="M66.1,43.8c0.3-0.2,0.8-0.7,0.4-1.6c-0.2-0.4-0.8-0.5-0.5-0.5c3-0.7,4.5-5,4.4-6.7
						c1.5,1.4,4.9,1.8,7.4-0.3c1.6-1.5,2.4-5.6-0.4-7.6c-1.4-1-3.9-1.1-5.4,0.1c-0.5-0.8-1.3-1.4-2.3-1.4c0-0.3,0-2.2-1.1-3.5
						c-1.5-1.6-5.6-1.7-7.1,0c-3-0.7-6.9,0.6-6.7,5.3c-2.1-0.8-3.3-0.8-4.4-0.7c-1,0.1-2.4,1-2.9,1.7c-0.2,0.3-0.5,0.7-0.7,1
						c-0.3,0.7-0.6,1.6-0.5,2.5c0.2,1.7,1,3.1,2.2,3.7c1.7,0.9,3.8,0.8,4.5,0.7c0.6-0.1,1.2-0.3,1.9-1c0.2-0.2,0.3-0.5,0.6-0.5
						c0,0.4-0.2,2.7,2.3,3.7c0,0.1,0,0.2,0.1,0.4c0.8,3.1,2.9,2.7,2.9,2.9c-0.9,0.6-0.5,1.4-0.3,1.8c1.4-0.4,2.4-0.5,2.8-0.5
						C63.6,43.3,64.7,43.4,66.1,43.8z"/>
					<g>
						<path class="st0" d="M73.1,53.1c0-3.1,2.1-5.5,2.1-5.5c0.2-0.3,0.3-0.5,0.2-0.7c0-0.3-0.3-0.5-0.3-0.5
							c-0.6-0.4-1.9-1.2-1.9-1.2l-0.1-0.1H73c-0.1,0-0.3,0.1-0.4,0.2c-0.4,0.3-1.1,0.8-2.3,0.8c-0.2,0-0.4,0-0.7-0.1
							c-0.6-0.1-1.7-0.6-1.7-0.6c-0.3-0.2-0.8-0.4-0.9-0.4l-0.1,0c-1.7-0.7-3.2-0.8-3.6-0.8c-0.4,0-1.9,0.1-3.6,0.8l-0.1,0
							c-0.1,0-0.2,0.1-0.4,0.2l-1.1,0.5c-0.4,0.2-0.8,0.3-1.1,0.4c-0.2,0-0.4,0.1-0.7,0.1c-1.2,0-1.9-0.5-2.3-0.8
							c-0.2-0.1-0.3-0.2-0.4-0.2l-0.1,0l-0.1,0c0,0-1.4,0.8-1.9,1.2c-0.1,0-0.3,0.2-0.4,0.5c0,0.2,0,0.4,0.2,0.7
							c0.1,0.1,2.1,2.5,2.1,5.6c0.1,0.4,0.2,2.2-1.4,5c-0.1,0.1-1.8,3.3,0.1,6.1c0,0,1.4,2.6,5.6,2.6c0.3,0,3.4,0.1,4.5,2
							c0,0.1,0.5,0.9,0.7,1.3l0.2,0.5l0.2-0.5c0.2-0.4,0.7-1.2,0.8-1.3c1-2,4.1-2,4.5-2c4.1,0,5.6-2.6,5.6-2.6
							c2-2.9,0.1-6.2,0.1-6.2C72.9,55.4,73.1,53.5,73.1,53.1z M71.5,53.1L66.1,57l2.1,6.1L63,59.1l-5.2,3.9l2.1-6.1l-5.4-3.9l0,0
							h6.7l1.9-6.2l1.9,6.2L71.5,53.1L71.5,53.1z"/>
						<g>
							<path class="st0" d="M74.3,44.6c0.1,0.1,0.2,0.2,0.4,0.3C74.6,44.8,74.4,44.7,74.3,44.6z"/>
							<path class="st0" d="M76.4,46.2c-0.2-0.2-0.4-0.3-0.7-0.5C75.9,45.9,76.2,46.1,76.4,46.2L76.4,46.2z"/>
							<path class="st0" d="M74.9,45.1c0.2,0.2,0.4,0.3,0.6,0.5C75.3,45.4,75.1,45.3,74.9,45.1z"/>
							<path class="st0" d="M109.2,78.8c-0.7-0.8-2.5-0.4-2.5-0.4c1-2.9-1.7-3.6-1.7-3.6c-0.9-0.3-1.6-0.1-2,0.2c0,0,0,0,0,0
								c0,0,0,0,0,0c-0.1,0-0.1,0.1-0.2,0.2c-0.2,0.3-0.4,0.6-0.4,1c0,0.8,0.6,1.4,1.4,1.4c0.3,0,0.6-0.1,0.8-0.2
								c0.3-0.2,0.5-0.5,0.5-0.8c0.4,0.2,0.5,0.6,0.5,0.6c0.8,2.4-2,3.3-2,3.3c-6.1,1.8-9.8-1.3-9.8-1.3l1.1-0.6
								c0.4-0.2,0.7-0.2,1-0.2c0,0,0,0.1,0,0.2c0,0.7,0.5,1.2,1.2,1.2c0.7,0,1.2-0.5,1.2-1.2c0-0.5-0.2-0.7-0.2-0.7
								c-0.7-1.1-3.2-0.4-3.2-0.4c0.8-2,0.1-3.5,0.1-3.5c-1.1-2.3-3.8-1.6-3.8-1.6c-0.9,0.3-1.1,1.1-1.1,1.1c-0.4,1.8,1.2,2,1.2,2
								c1.1,0.1,1.1-0.8,1.1-0.8c0.1-0.9-1.1-0.9-1.1-0.9c1-1.8,4.3,1.2,2.1,3.8c-0.2,0.3-0.4,0.1-0.4,0.1c-3.8-1.9-5.7-3.1-6.6-3.8
								c-0.1-1-1-1.6-0.8-1.8c0.1-0.1,0.7,0.2,1-0.2c0.1-0.2,0.4-1.8,0.6-2.9c3.3,1.5,6.2,1.1,6.8,0.9c0.3-0.1,0.5-0.3,0.5-0.8
								c0.1-1.3-3.2-8.8-3.3-11.4c1.6,0.8,2.5-1.6,2.8-2.4c2.1,1,2.8,20.4,4.4,21.1c0.8,0.3,1.1-1,1.2-1.2
								c2.6-8.7,2.7-17.1,2.5-19.9c-0.3-4.4-0.6-8.4-1.7-12.1c-0.7-2.2-1.9-6.8-4.9-7.5c-1.4-0.3-2.4,1-2.4,2.2c0,1,0.7,1.5,0.4,2.5
								c-0.4,0.6-0.7,1.4-0.9,2.1c-0.2,0.7,0.5,1,0.3,1.8c-0.9-0.1-1.4,0.7-2.9,0.3c1-0.4,1-3.2-0.2-3.7c-0.2-0.1-0.4-0.1-0.4-0.3
								c0,0,0.4-0.4,0.6-0.8c0.7-1.4,0.7-2.6,0.1-3.5c0.5,0,1-0.9,1.1-1.6l0,0c0,0,0,0,0-0.1v0c0-0.2,0-0.8,0.3-1.4
								c0.1-0.2,0-0.4-0.2-0.5c-0.2-0.1-0.4,0-0.5,0.2c-0.3,0.6-1,0.3-0.7-0.3c0.1-0.2,0-0.4-0.2-0.5c-0.2-0.1-0.4,0-0.5,0.2
								c-0.3,0.6-1,0.3-0.7-0.3c0.1-0.2,0-0.4-0.2-0.5c-0.2-0.1-0.4,0-0.5,0.2c-0.3,0.6-1,0.3-0.7-0.3c0.1-0.2,0-0.4-0.2-0.5
								c-0.2-0.1-0.4,0-0.5,0.2c-0.3,0.6-0.5,0.9-0.8,1.2c-0.7,0.1-0.5,0.9-0.4,1.4c-1.2-0.3-2.2,0.7-2.2,1.5h-0.1
								c-1,0-2,0.5-1.9,1.5c0,0.5,0.7,1.2,0.9,1.2c0.1,0-0.1-0.6,0.5-0.6c0.5,0,1.2,0.4,1.3,0.8c0.1,0.5-0.3,1.8,1.3,2
								c0,0,0,0.3,0,0.5c-0.6,0-0.7-0.1-1.3,0c-1,0.2-2.5,0.8-2.8,1.8c-0.1,0.2-0.1,0.5-0.1,0.8c0,0.2,0.2,0.5,0.2,0.7
								c0,0.1-0.2,0.4-0.3,0.5c-0.4,0.5-1.2,0.9-2,0.9c-0.8,0-1.6-0.5-1.9-0.9c-1.1-1.4,0.3-3.9,0.3-4.8c-0.1-2.4-3.1-1-4.3-0.3
								c-1.4,0.8-2.6,2-3.6,3.2c-0.5,0.7-1.1,1.5-1.4,2.2c-0.1,0.1-0.2,0.2-0.3,0.1c0.6,0.3,1.7,0.7,2.6,0.7c0,0,1.7,0.2,2.9-0.8
								c0,0,0.2-0.2,0.4-0.2c0.2,0,0.3,0.1,0.5,0.2c0,0,0.2,0.1,0.3,0.3c0.1,0.1,0.2,0.2,0.4,0.3c0.1,0.1,0.1,0.1,0.2,0.2
								c0.2,0.2,0.4,0.3,0.6,0.5c0,0,0.1,0.1,0.1,0.1c0.2,0.2,0.5,0.4,0.7,0.5l0,0c0.2,0.2,0.5,0.4,0.6,0.5l0,0c0,0,0.1,0.1,0.1,0.2
								c0,0.1,0,0.2-0.1,0.3c0,0-0.1,0.1-0.3,0.4c-0.4,0.5-1.1,1.5-1.6,2.8c0.6,1,1.5,2.2,2.9,2.2c1.1,0,1.6-0.5,1.7-1.2
								c0,0,0.1,0.1,0.1,0.1c0.1-0.1,0.7,3.2,1.5,4.1c-0.8,0.3-1.9,1.5-1.3,4.8c-0.6-0.5-1.8-1.4-2.3-1.9c-0.3-0.7-1-2.3-2.8-2.4
								c0.3,0.8,0.7,1.7,1.2,2.7c0,0,1.1,2.1,0.8,4.4c0.8-0.8,0.7-3,0.7-3c0,0,0.1-0.1,0.2-0.1c0.2,0,0.9,1.5,2.3,1.8
								c1.7,3,3.7,4.8,5.6,6c0,0.7,0.1,2.4-0.4,2.4c-1.5,0.3-2.9-0.7-4.2-0.6c-0.1-0.1-0.2-0.1-0.2-0.1c-5.6-2.7-13,3.1-14.3,4.2
								c-0.7,0.6-1.4-0.2-1.4-0.2c-0.4-0.6-1-0.8-1.6-0.7c-0.6-0.1-1.2,0.2-1.6,0.7c0,0-0.8,0.8-1.4,0.2c-1.2-1.1-7.9-6.3-13.4-4.5
								c0-0.3-0.8-0.5-1-0.5c-0.4-0.1-0.8-0.5-1.1-0.6c-0.6-0.3-1.6-0.1-2.3-0.2c-0.3,0-0.6-0.2-0.9-0.3c-0.9-0.5-1.9-1.2-2.4-2
								c-0.1-0.1-0.3-0.4-0.4-0.5c-0.3-0.3-0.4-0.6-0.6-1.2c-0.3-1.1,0.2-2.2,0.3-3.3c0.1-0.8,0.1-0.9,0.2-1.7
								c3.5-1.2,4.9-3.8,5.7-5.2c0.1-0.1,0.3-0.6,0.3-0.6c0.2,0,0.3,0,0.5,0c1.4,0,2.3-0.8,3.9-0.6c0,0.1,0.2,0.7,1.2,1.1
								c0,1,0.1,1.8,0.5,2.6c0.1,0.1,0.2,0.2,0.3,0.4c0.7-1.6,0.8-2.9,0.8-3.6c0-0.1-0.1-0.2-0.1-0.3c-0.3-1.7-1.1-2.2-1.9-2.6
								c-0.4-0.2-0.8-0.3-1.1-0.5c-0.5-0.4-1.1-0.8-1.5-1.5c0,0,0.2-0.2,0.4-0.4c1-1,1.5-2.5,1.8-4.2c0.7-1,2.8-0.6,3.6-0.5
								c0.2,0,0.5,0.1,0.7,0.2c0.2,0.2,0.3,0.5,0.6,0.6c0.3,0.1,0.7,0,1.1,0c0.1,0.2,0.2,0.4,0.3,0.6c0,0,0.1,0.2,0.3,0.4
								c1,0,2.3-0.5,2.8-0.8c-0.1,0-0.1-0.1-0.2-0.1c-0.4-0.6-1.1-1.2-1.7-1.3c-0.8-0.1-0.9-0.8-1.7-1c-0.2-0.1-0.8-0.1-1.1-0.1
								c-1.6,0.2-2.8-0.4-4.3-0.5c-1.5-0.1-1.5,0.9-2,1.7c-0.2,0.3-0.4,0.7-0.7,0.9c-0.4,0.4-0.9,0.4-1.4,0.8l-0.2-0.6
								c-0.1-0.5-0.3-1-0.7-1.5c-0.8-1.2-1.7-2.2-3.4-2.6c-0.3-0.1-0.4-0.2-0.6-0.3c-0.3-0.2-0.1-0.5,0-0.5c0.5-0.3,1.4-0.2,1.9-0.4
								c1.4-0.7,0.9-1.8,0.4-1.9c-0.7-0.1-2-0.5-2.2-0.6c-0.3-0.2-0.9-1.3-1.5-1.5c-0.6-0.2-0.4-1.2-1-1.4c-0.2,0-0.6,0.1-1,0.3
								c0-0.2-0.2-1.3-0.8-1.7c-0.5-0.3-0.6,0.1-0.6,0.4c0,0.2,0.7,0.6,0.8,1.7c-0.1,0.1-0.2,0.1-0.3,0.2c-0.1-0.4-0.3-1.1-0.7-1.4
								c-0.5-0.3-0.6,0.1-0.6,0.4c0,0.2,0.6,0.5,0.8,1.4c-0.1,0.1-0.3,0.2-0.4,0.4c-0.9-0.3-1.2-0.9-1.4-0.9
								c-0.3-0.1-0.7,0.1-0.5,0.6c0.2,0.5,0.9,0.8,1.4,0.9c-0.1,0.1-0.2,0.2-0.3,0.3c-1.1-0.2-1.4-0.9-1.6-1c-0.3,0-0.7,0.1-0.5,0.6
								c0.3,0.7,1.5,1,1.7,1c-0.2,0.3-0.3,0.6-0.2,0.8c-0.8-0.1-2.3,0.4-2.1,1.4c0.3,0.2,1.3-0.6,2.2-0.2c0.6,0.9,1.6,1,1.8,1.2
								c0.3,0.3,0.4,0.8,0.5,1.2c0.3,0.8,0.8,1.5,1.3,2.2c0.5,0.8,1.1,1.6,1.6,2.3c0.1,0.2,0.1,0.4,0.1,0.7c-0.6,1-2.5,2.1-3.2,2.9
								c-0.8,0.7-8.1,6.3-9,8.7c-0.2,0.5-0.3,1.2-0.3,2c-0.4,0.2-1.4,0.6-1.7,0.2c-0.6-0.8,0.5-1.4,0.3-2.1
								c-0.1-0.3-0.5-0.5-0.8-0.3c-1.8,1.3-0.9,3.6,0.3,4.1c1.3,0.5,1.4-0.8,2.4-0.3c0.2,0.1,2.5,2.2,2.2,3.8c0,0.1-0.1,0.3-0.2,0.4
								c-0.5,0.6-1.4,1.1-1.9,1.7c-1.2,0.8,1.1,5.6,0.9,8c-0.1,0.9,0.8,0.8,1.3,2.3c-0.6,0-1.1,0.2-1.4,0.6c0,0-0.2,0.2-0.2,0.7
								c0,0.7,0.5,1.2,1.2,1.2c0.7,0,1.2-0.5,1.2-1.2c0-0.1,0-0.1,0-0.2c0.3,0,0.6,0,1,0.2l1.1,0.6c0,0-3.7,3.1-9.8,1.3
								c0,0-2.8-0.9-2-3.3c0,0,0.1-0.4,0.5-0.6c0.1,0.3,0.3,0.6,0.5,0.8c0.2,0.2,0.5,0.2,0.8,0.2c0.8,0,1.4-0.6,1.4-1.4
								c0-0.4-0.1-0.7-0.4-1c-0.1-0.1-0.1-0.1-0.2-0.2c0,0,0,0,0,0c0,0,0,0,0,0c-0.4-0.3-1-0.5-2-0.2c0,0-2.6,0.8-1.7,3.6
								c0,0-1.8-0.4-2.5,0.4c0,0-0.2,0.3-0.2,0.7v0v0c0,0.2,0.1,0.4,0.2,0.6c0.2,0.3,0.5,0.4,0.9,0.4c0.3,0,0.6-0.2,0.8-0.4
								c0,0,0,0,0,0c0.1-0.1,0.3-0.2,0.6,0.1c4,4.2,10.6,2.5,14.2-0.3c0,0,2-2,4.3-3.3c0.9,0.4,1.8,0.7,2.7,1
								c-0.1,1.3,0.2,3.2,1.7,5.3c0,0-1,1.9-2.8,0.9c0,0-1.3-1-0.2-2.2c0,0,0.7-0.6,1,0.2c-0.4,0-0.7,0.3-0.7,0.7
								c0,0.4,0.3,0.7,0.7,0.7c0.4,0,0.7-0.3,0.7-0.7c0-0.3,0.1-1-0.6-1.5c0,0-0.6-0.6-1.6-0.4c-1.5,0.2-2.4,3.4,0.6,4.8
								c0,0,2.4,1.1,3.6-0.7c0,0,0-0.3,0.4,0.2c2.5,2.4,8.1,1.7,10.3,0.1c0,0,0.6-0.4,1.2-0.6c0,0.9,0.8,1.7,1.7,1.7
								c1,0,1.7-0.8,1.7-1.8c0-0.9-0.6-1.6-1.4-1.7c0,0-1.2-0.3-2.8,0.7c0,0-1.7,1.1-1.6,0.9c0.6-0.9,0.9-2.1,1.2-3.4
								c2.4,0.3,4.9,0.4,7.5,0.5c0,0.8-0.1,1.7-0.4,2.4c0,0-0.9,0.4-0.9,1c0,0-0.1,0.5,0.7,1.1c0,0,0.6,0.7,0.8,1.2c0,0,0,0.7,1,0.7
								c0.1,0,0.1,0,0.2,0c0.1,0,0.1,0,0.2,0c1,0,1-0.7,1-0.7c0.2-0.5,0.8-1.2,0.8-1.2c0.8-0.7,0.7-1.1,0.7-1.1c0-0.6-0.9-1-0.9-1
								c-0.3-0.7-0.4-1.6-0.4-2.4c2.6-0.1,5.1-0.2,7.5-0.5c0.2,1.3,0.6,2.5,1.2,3.4c0.1,0.2-1.6-0.9-1.6-0.9c-1.6-1-2.7-0.7-2.8-0.7
								c-0.8,0.1-1.4,0.9-1.4,1.7c0,1,0.8,1.8,1.7,1.8c1,0,1.7-0.8,1.7-1.7c0.6,0.3,1.2,0.6,1.2,0.6c2.2,1.7,7.8,2.4,10.3-0.1
								c0.5-0.4,0.4-0.2,0.4-0.2c1.2,1.8,3.6,0.7,3.6,0.7c3-1.3,2.1-4.5,0.6-4.8c-1-0.2-1.6,0.4-1.6,0.4c-0.6,0.5-0.6,1.3-0.6,1.5
								c0,0.4,0.3,0.7,0.7,0.7c0.4,0,0.7-0.3,0.7-0.7c0-0.4-0.3-0.7-0.7-0.7c0.3-0.8,1-0.2,1-0.2c1.1,1.2-0.2,2.2-0.2,2.2
								c-1.7,1-2.8-0.9-2.8-0.9c1.5-2.2,1.7-4,1.7-5.3c0.9-0.3,1.8-0.6,2.7-1c2.2,1.2,4.3,3.3,4.3,3.3c3.6,2.8,10.2,4.5,14.2,0.3
								c0.3-0.3,0.5-0.2,0.6-0.1c0,0,0,0,0,0c0.2,0.2,0.5,0.4,0.8,0.4c0.4,0,0.7-0.2,0.9-0.4c0.1-0.2,0.2-0.4,0.2-0.6v0v0
								C109.4,79,109.2,78.8,109.2,78.8z M34.1,77.5c0,0-0.2,0.2-0.4-0.1c-2.1-2.6,1.1-5.6,2.1-3.8c0,0-1.2,0-1.1,0.9
								c0,0,0,0.9,1.1,0.8c0,0,1.5-0.2,1.2-2c0,0-0.2-0.8-1.1-1.1c0,0-2.7-0.7-3.8,1.6c0,0-0.2,0.6-0.3,1.4c-0.3-0.2-0.7-0.4-1-0.5
								c-0.5-0.5-1.4-4.8-0.8-7c4.1-0.9,5.3-4.2,5.5-5.2c0.8,0.3,1.3,1.2,1.4,1.6c0.1,0.6-0.2,1.1,0.1,1.6c0.5,0.7,1.5,1.3,2.2,1.7
								c0.2,0.1,3.2,2.5,3.6,2.5c0.4,0.1,0.7-0.2,1.1-0.2c0.1,0,0.2,0.1,0.3,0.2c0,0,0.2,0.2,0.5,0.4c-0.8,0.5-1.8,1.3-3.2,2.5
								C41.5,73,40.5,74.3,34.1,77.5z M44.1,80.4c0,0-0.3,1.1-0.5,1.4c0,0-0.9-1.6-1-3.7c0.7,0.2,1.3,0.5,2,0.7
								C44.5,79.2,44.3,79.8,44.1,80.4z M52.1,84.2c0,0-4.3,1.7-7.2-1.3c0,0,0.2-1.9,1-3.9c2.4,0.6,4.8,1.1,7.4,1.4
								C53.2,82,52.8,84.1,52.1,84.2z M47.9,75.9c0.8-0.8,1.9-1.3,3.3-1.4c0,0,1.9,0,2.3,2.4C51.4,76.6,49.5,76.3,47.9,75.9z
								 M52.2,73.2c-0.2,0.1-3,0.2-5.3,2.4c-1.3-0.3-2.4-0.6-3.3-0.9c0.2-0.4,0.4-0.7,0.7-1.1c0,0,3.6-4.4,10.1-1.9
								C54.4,71.8,53.9,72.8,52.2,73.2z M55.1,77.1c0.3-2.6,0.5-4.8,1.4-4.8c0,0,0.7,0,1.1,0.7c0.8,1.1,3,2.5,4,4.5
								C59.3,77.5,57.1,77.4,55.1,77.1z M65.4,77.6c1-2,3.2-3.4,4-4.5c0.5-0.6,1.1-0.7,1.1-0.7c0.9,0,1.1,2.2,1.4,4.8
								C70,77.4,67.7,77.5,65.4,77.6z M72.8,71.7c6.5-2.5,10.1,1.9,10.1,1.9c0.3,0.4,0.5,0.7,0.7,1.1c-0.9,0.3-2.1,0.6-3.3,0.9
								c-2.3-2.2-5.1-2.4-5.4-2.4C73.1,72.8,72.7,71.8,72.8,71.7z M75.9,74.6c1.4,0,2.5,0.6,3.3,1.4c-1.6,0.4-3.5,0.7-5.6,1
								C74,74.5,75.9,74.6,75.9,74.6z M75,84.2c-0.7-0.1-1-2.2-1.2-3.8c2.6-0.3,5-0.8,7.4-1.4c0.8,2,1,3.9,1,3.9
								C79.2,85.9,75,84.2,75,84.2z M83.4,81.8c-0.2-0.2-0.5-1.4-0.5-1.4c-0.2-0.6-0.4-1.1-0.6-1.7c0.7-0.2,1.4-0.4,2-0.6
								C84.3,80.2,83.4,81.8,83.4,81.8z"/>
						</g>
					</g>
				</g>
			</g>
		</g>
	</g>
	<g>
		<path class="st0" d="M149.9,37.6l-0.3-13.7h-0.1c-0.3,1.7-0.6,3-0.8,3.9l-2.3,9.8h-4.6l-2.2-9.8c-0.2-0.9-0.5-2.2-0.8-3.9h-0.1
			l-0.2,13.7h-2.9l0.6-16.2h5.4c0,0,1.8,8.2,2.7,13.4h0.1c1.1-5.2,3.2-13.4,3.2-13.4h5.3l0.6,16.2H149.9z"/>
		<path class="st0" d="M157.1,37.6v-9.5l-1.4-0.3v-2h4.5v11.8H157.1z M157.1,21h3.2v2.9h-3.2V21z"/>
		<path class="st0" d="M170.4,37.6v-7c0-1.8-0.7-2.6-2.1-2.6c-0.8,0-1.5,0.4-2.1,0.7v8.9h-3.1V25.8h2.2l0.5,1.3
			c0.7-0.8,2-1.6,3.7-1.6c3,0,4.2,1.8,4.2,4.7v7.3H170.4z"/>
		<path class="st0" d="M177.2,37.6v-9.5l-1.4-0.3v-2h4.5v11.8H177.2z M177.1,21h3.2v2.9h-3.2V21z"/>
		<path class="st0" d="M185.8,28.9c0,1.8,5.1,1.3,5.1,5.1c0,2.1-1.6,3.8-4.6,3.8c-1.4,0-2.7-0.4-3.5-0.9l0.6-2.2
			c0.6,0.4,1.7,0.8,2.8,0.8c1,0,1.7-0.6,1.7-1.3c0-2.1-5-1.4-5-5.4c0-1.7,1.3-3.3,4.5-3.3c1.2,0,2.5,0.2,3.3,0.6l-0.4,2.3
			c-0.8-0.4-1.8-0.6-2.8-0.6C186.4,27.8,185.8,28.3,185.8,28.9z"/>
		<path class="st0" d="M197.8,37.8c-2.1,0-3.5-1-3.5-3.9v-5.8h-1.8v-2.2h1.8v-2l3.1-1v3.1h3.1v2.2h-3.1v5.8c0,0.8,0.4,1.3,1.2,1.3
			c0.6,0,1.3-0.2,1.8-0.4l0.5,2.3C200.2,37.4,199,37.8,197.8,37.8z"/>
		<path class="st0" d="M205,32.5c0,1.9,1.1,2.9,3,2.9c1.2,0,2.4-0.5,3.5-1l0.6,2.2c-1,0.5-2.6,1.2-4.4,1.2c-3.6,0-5.8-2.3-5.8-6.1
			c0-3.6,1.8-6.1,5.5-6.1c3.6,0,4.9,2.6,4.9,5.6v1.4H205z M207.2,27.9c-1.6,0-2.2,1.4-2.2,2.8h4.3C209.3,29.2,208.9,27.9,207.2,27.9
			z"/>
		<path class="st0" d="M221.4,28.4c-0.4-0.1-0.9-0.2-1.5-0.2c-0.8,0-1.6,0.4-2.1,0.8v8.6h-3.1V25.8h2.2l0.3,1.6h0.1
			c0.4-0.8,1.4-1.8,2.8-1.8c0.6,0,1.1,0.1,1.4,0.2L221.4,28.4z"/>
		<path class="st0" d="M224.3,37.6v-9.5l-1.4-0.3v-2h4.5v11.8H224.3z M224.2,21h3.2v2.9h-3.2V21z"/>
		<path class="st0" d="M240.8,31.7c0,4-2,6.1-5.5,6.1c-3.5,0-5.5-2.1-5.5-6.1c0-3.5,1.9-6.1,5.5-6.1
			C238.9,25.6,240.8,28.2,240.8,31.7z M237.6,31.7c0-2.8-0.8-3.8-2.3-3.8c-1.5,0-2.3,1-2.3,3.8c0,2.7,0.7,3.8,2.3,3.8
			C236.8,35.5,237.6,34.5,237.6,31.7z"/>
		<path class="st0" d="M256.1,26.7c-0.2-0.7-0.3-1.3-0.3-2.2V21h3.1v16.6h-2.5l-0.4-1.3c-0.5,0.7-1.6,1.5-3.1,1.5
			c-2.7,0-4.8-1.9-4.8-6.1c0-3.9,2.2-6.1,5.1-6.1C254.4,25.6,255.4,26,256.1,26.7z M255.8,28.5c-0.5-0.3-1.2-0.6-2.1-0.6
			c-1.5,0-2.4,1-2.4,3.7c0,2.8,0.9,3.9,2.4,3.9c0.8,0,1.6-0.4,2.2-1V28.5z"/>
		<path class="st0" d="M264.4,32.5c0,1.9,1.1,2.9,3,2.9c1.2,0,2.4-0.5,3.5-1l0.6,2.2c-1,0.5-2.6,1.2-4.4,1.2c-3.6,0-5.8-2.3-5.8-6.1
			c0-3.6,1.8-6.1,5.5-6.1c3.6,0,4.9,2.6,4.9,5.6v1.4H264.4z M266.6,27.9c-1.6,0-2.2,1.4-2.2,2.8h4.3
			C268.7,29.2,268.3,27.9,266.6,27.9z"/>
		<path class="st0" d="M135.7,59V45.5h3.1v13.3c0,1,0.6,1.1,1.9,1.1v2.2c0,0-0.9,0.2-1.7,0.2C136.6,62.3,135.7,61,135.7,59z"/>
		<path class="st0" d="M150,62.1l-0.4-1.4c-0.6,0.8-1.8,1.6-3.4,1.6c-2.4,0-3.9-1.5-3.9-3.8c0-2.2,1.6-3.5,4.4-3.5h2.5v-0.6
			c0-1.5-0.9-2-2.1-2c-1.4,0-2.6,0.4-3.5,0.8l-0.8-2.2c1.2-0.5,2.8-1,4.6-1c3.3,0,4.8,1.5,4.8,4.5v7.5H150z M149.1,56.9h-1.9
			c-1.3,0-1.9,0.6-1.9,1.5c0,1.1,0.6,1.7,1.8,1.7c0.7,0,1.5-0.3,2.1-0.8V56.9z"/>
		<path class="st0" d="M157.6,53.4c0,1.8,5.1,1.3,5.1,5.1c0,2.1-1.6,3.8-4.6,3.8c-1.4,0-2.7-0.4-3.5-0.9l0.6-2.2
			c0.6,0.4,1.7,0.8,2.8,0.8c1,0,1.7-0.6,1.7-1.3c0-2.1-5-1.4-5-5.4c0-1.7,1.3-3.3,4.5-3.3c1.2,0,2.5,0.2,3.3,0.6l-0.4,2.3
			c-0.8-0.4-1.8-0.6-2.8-0.6C158.1,52.3,157.6,52.7,157.6,53.4z"/>
		<path class="st0" d="M177.1,62.3c-4.6,0-7-3-7-8.4c0-5,2.4-8.3,7-8.3c2.2,0,4.2,0.5,5.5,1.4l-1.2,2.5c-0.8-0.6-2.3-1.1-4-1.1
			c-2.7,0-4,1.9-4,5.5c0,3.7,1.3,5.7,4,5.7c1.6,0,3.2-0.7,4.3-1.5l1,2.5C181,61.7,179.2,62.3,177.1,62.3z"/>
		<path class="st0" d="M192.6,62.1l-0.5-1.4c-0.6,0.7-1.8,1.7-3.7,1.7c-2.9,0-4.3-1.6-4.3-4.9v-7.1h3.1v7.2c0,1.8,0.6,2.5,2.1,2.5
			c0.8,0,1.6-0.3,2.1-0.7v-8.9h3.2v11.8H192.6z"/>
		<path class="st0" d="M197.4,59V45.5h3.1v13.3c0,1,0.6,1.1,1.9,1.1v2.2c0,0-0.9,0.2-1.7,0.2C198.2,62.3,197.4,61,197.4,59z"/>
		<path class="st0" d="M208.7,62.3c-2.1,0-3.5-1-3.5-3.9v-5.8h-1.8v-2.2h1.8v-2l3.1-1v3.1h3.1v2.2h-3.1v5.8c0,0.8,0.4,1.3,1.2,1.3
			c0.6,0,1.3-0.2,1.8-0.4l0.5,2.3C211.2,61.9,210,62.3,208.7,62.3z"/>
		<path class="st0" d="M222.1,62.1l-0.5-1.4c-0.6,0.7-1.8,1.7-3.7,1.7c-2.9,0-4.3-1.6-4.3-4.9v-7.1h3.1v7.2c0,1.8,0.6,2.5,2.1,2.5
			c0.8,0,1.6-0.3,2.1-0.7v-8.9h3.2v11.8H222.1z"/>
		<path class="st0" d="M233.5,52.9c-0.4-0.1-0.9-0.2-1.5-0.2c-0.8,0-1.6,0.4-2.1,0.8v8.6h-3.1V50.3h2.2l0.3,1.6h0.1
			c0.4-0.8,1.4-1.8,2.8-1.8c0.6,0,1.1,0.1,1.4,0.2L233.5,52.9z"/>
		<path class="st0" d="M242.4,62.1l-0.4-1.4c-0.6,0.8-1.8,1.6-3.4,1.6c-2.4,0-3.9-1.5-3.9-3.8c0-2.2,1.6-3.5,4.4-3.5h2.5v-0.6
			c0-1.5-0.9-2-2.1-2c-1.4,0-2.6,0.4-3.5,0.8l-0.8-2.2c1.2-0.5,2.8-1,4.6-1c3.3,0,4.8,1.5,4.8,4.5v7.5H242.4z M241.5,56.9h-1.9
			c-1.3,0-1.9,0.6-1.9,1.5c0,1.1,0.6,1.7,1.8,1.7c0.7,0,1.5-0.3,2.1-0.8V56.9z"/>
		<path class="st0" d="M250,53.4c0,1.8,5.1,1.3,5.1,5.1c0,2.1-1.6,3.8-4.6,3.8c-1.4,0-2.7-0.4-3.5-0.9l0.6-2.2
			c0.6,0.4,1.7,0.8,2.8,0.8c1,0,1.7-0.6,1.7-1.3c0-2.1-5-1.4-5-5.4c0-1.7,1.3-3.3,4.5-3.3c1.2,0,2.5,0.2,3.3,0.6l-0.4,2.3
			c-0.8-0.4-1.8-0.6-2.8-0.6C250.5,52.3,250,52.7,250,53.4z"/>
		<path class="st0" d="M257.3,58.7h3.2v3.6c0,2-1.2,2.9-3.2,3.1v-1.6c0.4-0.1,0.7-0.5,0.7-1.6l-0.7-0.4V58.7z"/>
		<path class="st0" d="M135.7,83.4V70h3.1v13.3c0,1,0.6,1.1,1.9,1.1v2.2c0,0-0.9,0.2-1.7,0.2C136.6,86.8,135.7,85.5,135.7,83.4z"/>
		<path class="st0" d="M150,86.6l-0.4-1.4c-0.6,0.8-1.8,1.6-3.4,1.6c-2.4,0-3.9-1.5-3.9-3.8c0-2.2,1.6-3.5,4.4-3.5h2.5v-0.6
			c0-1.5-0.9-2-2.1-2c-1.4,0-2.6,0.4-3.5,0.8l-0.8-2.2c1.2-0.5,2.8-1,4.6-1c3.3,0,4.8,1.5,4.8,4.5v7.5H150z M149.1,81.4h-1.9
			c-1.3,0-1.9,0.6-1.9,1.5c0,1.1,0.6,1.7,1.8,1.7c0.7,0,1.5-0.3,2.1-0.8V81.4z"/>
		<path class="st0" d="M157.6,77.9c0,1.8,5.1,1.3,5.1,5.1c0,2.1-1.6,3.8-4.6,3.8c-1.4,0-2.7-0.4-3.5-0.9l0.6-2.2
			c0.6,0.4,1.7,0.8,2.8,0.8c1,0,1.7-0.6,1.7-1.3c0-2.1-5-1.4-5-5.4c0-1.7,1.3-3.3,4.5-3.3c1.2,0,2.5,0.2,3.3,0.6l-0.4,2.3
			c-0.8-0.4-1.8-0.6-2.8-0.6C158.1,76.8,157.6,77.2,157.6,77.9z"/>
		<path class="st0" d="M172.4,86.6h-3.1l4.4-16.2h5.2l4.3,16.2h-3.5l-0.8-3.7h-5.6L172.4,86.6z M175.6,73.1l-1.8,7.3h4.4l-1.7-7.3
			H175.6z"/>
		<path class="st0" d="M191.6,77.4c-0.4-0.1-0.9-0.2-1.5-0.2c-0.8,0-1.6,0.4-2.1,0.8v8.6h-3.1V74.8h2.2l0.3,1.6h0.1
			c0.4-0.8,1.4-1.8,2.8-1.8c0.6,0,1.1,0.1,1.4,0.2L191.6,77.4z"/>
		<path class="st0" d="M197.9,86.8c-2.1,0-3.5-1-3.5-3.9V77h-1.8v-2.2h1.8v-2l3.1-1v3.1h3.1V77h-3.1v5.8c0,0.8,0.4,1.3,1.2,1.3
			c0.6,0,1.3-0.2,1.8-0.4L201,86C200.3,86.4,199.1,86.8,197.9,86.8z"/>
		<path class="st0" d="M205.1,81.5c0,1.9,1.1,2.9,3,2.9c1.2,0,2.4-0.5,3.5-1l0.6,2.2c-1,0.5-2.6,1.2-4.4,1.2c-3.6,0-5.8-2.3-5.8-6.1
			c0-3.6,1.8-6.1,5.5-6.1c3.6,0,4.9,2.6,4.9,5.6v1.4H205.1z M207.3,76.8c-1.6,0-2.2,1.4-2.2,2.8h4.3C209.4,78.1,209,76.8,207.3,76.8
			z"/>
		<path class="st0" d="M217.5,77.9c0,1.8,5.1,1.3,5.1,5.1c0,2.1-1.6,3.8-4.6,3.8c-1.4,0-2.7-0.4-3.5-0.9l0.6-2.2
			c0.6,0.4,1.7,0.8,2.8,0.8c1,0,1.7-0.6,1.7-1.3c0-2.1-5-1.4-5-5.4c0-1.7,1.3-3.3,4.5-3.3c1.2,0,2.5,0.2,3.3,0.6l-0.4,2.3
			c-0.8-0.4-1.8-0.6-2.8-0.6C218.1,76.8,217.5,77.2,217.5,77.9z"/>
		<path class="st0" d="M234.9,86.3l-2.2,0.4l-3.5-11.9h3.5l2.5,9.9h0l2.5-9.9h3.1l-3.6,12.1c-1,3.4-2.7,4.6-5.1,4.6
			c-1.3,0-2.8-0.7-3.3-1.2l1-2.1h0.3c0.1,0.1,1.1,0.8,2.2,0.8c1.2,0,2.1-0.9,2.5-2.4L234.9,86.3z"/>
		<path class="st0" d="M250.6,81.5c0,1.9,1.1,2.9,3,2.9c1.2,0,2.4-0.5,3.5-1l0.6,2.2c-1,0.5-2.6,1.2-4.4,1.2c-3.6,0-5.8-2.3-5.8-6.1
			c0-3.6,1.8-6.1,5.5-6.1c3.6,0,4.9,2.6,4.9,5.6v1.4H250.6z M252.8,76.8c-1.6,0-2.2,1.4-2.2,2.8h4.3
			C254.9,78.1,254.4,76.8,252.8,76.8z"/>
		<path class="st0" d="M260.3,83.4V70h3.1v13.3c0,1,0.6,1.1,1.9,1.1v2.2c0,0-0.9,0.2-1.7,0.2C261.2,86.8,260.3,85.5,260.3,83.4z"/>
		<path class="st0" d="M140.7,105.4h-1.8v5.6h-3.1V94.8h4.9c3.3,0,6.2,1.6,6.2,5.1C146.8,103,144.5,105.4,140.7,105.4z M140.6,97.5
			h-1.7v5.4h1.7c1.8,0,2.9-1.1,2.9-2.9C143.5,98.3,142.4,97.5,140.6,97.5z"/>
		<path class="st0" d="M155.4,111l-0.4-1.4c-0.6,0.8-1.8,1.6-3.4,1.6c-2.4,0-3.9-1.5-3.9-3.8c0-2.2,1.6-3.5,4.4-3.5h2.5v-0.6
			c0-1.5-0.9-2-2.1-2c-1.4,0-2.6,0.4-3.5,0.8l-0.8-2.2c1.2-0.5,2.8-1,4.6-1c3.3,0,4.8,1.5,4.8,4.5v7.5H155.4z M154.5,105.9h-1.9
			c-1.3,0-1.9,0.6-1.9,1.5c0,1.1,0.6,1.7,1.8,1.7c0.7,0,1.5-0.3,2.1-0.8V105.9z"/>
		<path class="st0" d="M164.6,111.3c-2.1,0-3.5-1-3.5-3.9v-5.8h-1.8v-2.2h1.8v-2l3.1-1v3.1h3.1v2.2h-3.1v5.8c0,0.8,0.4,1.3,1.2,1.3
			c0.6,0,1.3-0.2,1.8-0.4l0.5,2.3C167.1,110.9,165.8,111.3,164.6,111.3z"/>
		<path class="st0" d="M176.5,101.9c-0.4-0.1-0.9-0.2-1.5-0.2c-0.8,0-1.6,0.4-2.1,0.8v8.6h-3.1V99.3h2.2l0.3,1.6h0.1
			c0.4-0.8,1.4-1.8,2.8-1.8c0.6,0,1.1,0.1,1.4,0.2L176.5,101.9z"/>
		<path class="st0" d="M179.3,111v-9.5l-1.4-0.3v-2h4.5V111H179.3z M179.2,94.5h3.2v2.9h-3.2V94.5z"/>
		<path class="st0" d="M195.7,103.8v7.3h-3.2v-7c0-1.8-0.6-2.6-2.1-2.6c-0.8,0-1.4,0.4-2,0.7v8.9h-3.1V99.3h2.1l0.5,1.4
			c0.7-0.8,1.8-1.6,3.5-1.6c1.9,0,3.1,0.6,3.7,1.7c0.7-0.8,1.9-1.7,3.6-1.7c3.4,0,4.3,1.8,4.3,4.7v7.3h-3.2v-7
			c0-1.8-0.7-2.6-2.2-2.6c-0.8,0-1.5,0.4-2,0.7C195.7,102.6,195.7,103.2,195.7,103.8z"/>
		<path class="st0" d="M216.1,105.1c0,4-2,6.1-5.5,6.1c-3.5,0-5.5-2.1-5.5-6.1c0-3.5,1.9-6.1,5.5-6.1
			C214.1,99,216.1,101.7,216.1,105.1z M212.9,105.1c0-2.8-0.8-3.8-2.3-3.8c-1.5,0-2.3,1-2.3,3.8c0,2.7,0.7,3.8,2.3,3.8
			C212.1,109,212.9,107.9,212.9,105.1z"/>
		<path class="st0" d="M225.7,111v-7c0-1.8-0.7-2.6-2.1-2.6c-0.8,0-1.5,0.4-2.1,0.7v8.9h-3.1V99.3h2.2l0.5,1.3
			c0.7-0.8,2-1.6,3.7-1.6c3,0,4.2,1.8,4.2,4.7v7.3H225.7z"/>
		<path class="st0" d="M232.5,111v-9.5l-1.4-0.3v-2h4.5V111H232.5z M232.4,94.5h3.2v2.9h-3.2V94.5z"/>
		<path class="st0" d="M249,105.1c0,4-2,6.1-5.5,6.1c-3.5,0-5.5-2.1-5.5-6.1c0-3.5,1.9-6.1,5.5-6.1C247,99,249,101.7,249,105.1z
			 M245.8,105.1c0-2.8-0.8-3.8-2.3-3.8c-1.5,0-2.3,1-2.3,3.8c0,2.7,0.7,3.8,2.3,3.8C245,109,245.8,107.9,245.8,105.1z"/>
	</g>
</g>
<g>
	<rect x="-1.1" y="354.6" class="st1" width="121.8" height="23.9"/>
	<rect x="120.7" y="354.6" class="st2" width="175.6" height="23.9"/>
</g>
</svg>
