<svg xmlns="http://www.w3.org/2000/svg" viewBox="0 0 1400 600" preserveAspectRatio="none">
  <path d="M 0 165 L 6 165 L 7 164 L 15 164 L 16 163 L 21 163 L 22 162 L 26 162 L 27 161 L 30 161 L 31 160 L 33 160 L 34 159 L 36 159 L 37 158 L 39 158 L 40 157 L 41 157 L 42 156 L 44 156 L 45 155 L 46 155 L 47 154 L 48 154 L 49 153 L 51 153 L 52 152 L 53 152 L 55 150 L 56 150 L 57 149 L 58 149 L 59 148 L 60 148 L 61 147 L 62 147 L 63 146 L 64 146 L 65 145 L 67 145 L 68 146 L 89 146 L 92 149 L 93 149 L 97 153 L 98 153 L 100 155 L 101 155 L 103 157 L 104 157 L 105 158 L 106 158 L 107 159 L 108 159 L 109 160 L 110 160 L 111 161 L 112 161 L 113 162 L 114 162 L 116 164 L 117 164 L 120 167 L 121 167 L 123 169 L 124 169 L 126 171 L 127 171 L 128 172 L 129 172 L 130 173 L 131 173 L 133 175 L 134 175 L 135 176 L 136 176 L 137 177 L 138 177 L 139 178 L 140 178 L 141 179 L 142 179 L 143 180 L 145 180 L 146 181 L 147 181 L 148 182 L 150 182 L 151 183 L 153 183 L 154 184 L 192 184 L 193 183 L 205 183 L 206 182 L 216 182 L 217 181 L 224 181 L 225 182 L 228 182 L 229 183 L 231 183 L 232 184 L 236 184 L 237 185 L 240 185 L 241 186 L 244 186 L 245 187 L 249 187 L 250 188 L 254 188 L 255 189 L 258 189 L 259 190 L 262 190 L 263 191 L 266 191 L 267 192 L 270 192 L 271 193 L 273 193 L 274 194 L 277 194 L 278 195 L 281 195 L 282 196 L 285 196 L 286 197 L 293 197 L 294 198 L 363 198 L 364 199 L 374 199 L 375 200 L 376 200 L 377 201 L 378 201 L 379 202 L 380 202 L 381 203 L 382 203 L 383 204 L 384 204 L 385 205 L 386 205 L 387 206 L 388 206 L 390 208 L 391 208 L 392 209 L 393 209 L 395 211 L 396 211 L 397 212 L 398 212 L 400 214 L 401 214 L 402 215 L 403 215 L 404 216 L 405 216 L 406 217 L 407 217 L 408 218 L 409 218 L 410 219 L 411 219 L 412 220 L 413 220 L 414 221 L 416 221 L 417 222 L 418 222 L 419 223 L 421 223 L 422 224 L 424 224 L 425 225 L 427 225 L 428 226 L 430 226 L 431 227 L 433 227 L 434 228 L 436 228 L 437 229 L 439 229 L 440 230 L 441 230 L 442 231 L 444 231 L 445 232 L 447 232 L 448 233 L 449 233 L 450 234 L 451 234 L 456 239 L 457 239 L 460 242 L 461 242 L 462 243 L 463 243 L 464 244 L 465 244 L 466 245 L 468 245 L 469 246 L 471 246 L 472 247 L 474 247 L 475 248 L 476 248 L 477 249 L 479 249 L 480 250 L 482 250 L 483 251 L 486 251 L 487 252 L 491 252 L 492 253 L 510 253 L 511 254 L 525 254 L 526 255 L 531 255 L 532 256 L 536 256 L 537 257 L 542 257 L 543 258 L 546 258 L 547 259 L 550 259 L 551 260 L 554 260 L 555 261 L 558 261 L 559 262 L 560 262 L 561 263 L 562 263 L 564 265 L 565 265 L 567 267 L 568 267 L 571 270 L 572 270 L 575 273 L 576 273 L 580 277 L 581 277 L 588 284 L 589 284 L 597 292 L 598 292 L 601 295 L 602 295 L 604 297 L 605 297 L 606 298 L 607 298 L 608 299 L 609 299 L 611 301 L 612 301 L 613 302 L 614 302 L 616 304 L 617 304 L 620 307 L 621 307 L 623 309 L 624 309 L 628 313 L 629 313 L 643 327 L 644 327 L 648 331 L 649 331 L 651 333 L 652 333 L 654 335 L 655 335 L 657 337 L 658 337 L 659 338 L 660 338 L 661 339 L 663 339 L 664 340 L 666 340 L 667 341 L 669 341 L 670 342 L 675 342 L 676 343 L 685 343 L 686 344 L 690 344 L 691 345 L 694 345 L 695 346 L 697 346 L 698 347 L 700 347 L 701 348 L 703 348 L 704 349 L 706 349 L 707 350 L 708 350 L 709 351 L 711 351 L 712 352 L 714 352 L 715 353 L 718 353 L 719 354 L 722 354 L 723 355 L 727 355 L 728 356 L 733 356 L 734 357 L 739 357 L 740 358 L 743 358 L 744 359 L 747 359 L 748 360 L 750 360 L 751 361 L 754 361 L 755 362 L 756 362 L 757 363 L 759 363 L 760 364 L 761 364 L 762 365 L 763 365 L 764 366 L 765 366 L 766 367 L 767 367 L 769 369 L 770 369 L 773 372 L 774 372 L 776 374 L 777 374 L 779 376 L 780 376 L 782 378 L 783 378 L 785 380 L 786 380 L 787 381 L 788 381 L 790 383 L 791 383 L 792 384 L 793 384 L 794 385 L 795 385 L 796 386 L 797 386 L 798 387 L 799 387 L 800 388 L 801 388 L 802 389 L 803 389 L 805 391 L 806 391 L 807 392 L 808 392 L 809 393 L 810 393 L 812 395 L 813 395 L 814 396 L 815 396 L 817 398 L 818 398 L 820 400 L 821 400 L 823 402 L 824 402 L 825 403 L 826 403 L 828 405 L 829 405 L 830 406 L 831 406 L 832 407 L 833 407 L 834 408 L 835 408 L 836 409 L 837 409 L 838 410 L 839 410 L 840 411 L 842 411 L 843 412 L 844 412 L 845 413 L 847 413 L 848 414 L 850 414 L 851 415 L 853 415 L 854 416 L 857 416 L 858 417 L 860 417 L 861 418 L 863 418 L 864 419 L 866 419 L 867 420 L 869 420 L 870 421 L 872 421 L 873 422 L 876 422 L 877 423 L 879 423 L 880 424 L 883 424 L 884 425 L 889 425 L 890 426 L 894 426 L 895 427 L 899 427 L 900 428 L 903 428 L 904 429 L 908 429 L 909 430 L 912 430 L 913 431 L 915 431 L 916 432 L 919 432 L 920 433 L 923 433 L 924 434 L 927 434 L 928 435 L 931 435 L 932 436 L 937 436 L 938 437 L 947 437 L 948 438 L 953 438 L 954 439 L 958 439 L 959 440 L 964 440 L 965 441 L 969 441 L 970 442 L 974 442 L 975 443 L 1049 443 L 1050 442 L 1051 442 L 1052 441 L 1054 441 L 1055 440 L 1056 440 L 1057 439 L 1059 439 L 1060 438 L 1063 438 L 1064 437 L 1068 437 L 1069 436 L 1073 436 L 1074 435 L 1077 435 L 1078 434 L 1080 434 L 1081 433 L 1083 433 L 1084 432 L 1085 432 L 1086 431 L 1087 431 L 1088 430 L 1089 430 L 1090 429 L 1091 429 L 1092 428 L 1093 428 L 1095 426 L 1096 426 L 1098 424 L 1099 424 L 1101 422 L 1102 422 L 1103 421 L 1104 421 L 1105 420 L 1107 420 L 1108 419 L 1110 419 L 1111 418 L 1113 418 L 1114 417 L 1115 417 L 1116 416 L 1117 416 L 1118 415 L 1119 415 L 1121 413 L 1122 413 L 1124 411 L 1125 411 L 1128 408 L 1129 408 L 1134 403 L 1135 403 L 1136 402 L 1138 402 L 1139 401 L 1143 401 L 1144 400 L 1151 400 L 1152 399 L 1186 399 L 1187 398 L 1190 398 L 1191 397 L 1192 397 L 1193 396 L 1195 396 L 1196 395 L 1197 395 L 1199 393 L 1200 393 L 1203 390 L 1204 390 L 1209 385 L 1210 385 L 1211 384 L 1212 384 L 1214 382 L 1215 382 L 1216 381 L 1218 381 L 1219 380 L 1220 380 L 1221 379 L 1223 379 L 1224 378 L 1225 378 L 1226 377 L 1227 377 L 1228 376 L 1232 376 L 1233 375 L 1236 375 L 1237 374 L 1239 374 L 1240 373 L 1242 373 L 1243 372 L 1245 372 L 1246 371 L 1249 371 L 1250 370 L 1252 370 L 1253 369 L 1254 369 L 1255 368 L 1256 368 L 1257 367 L 1258 367 L 1260 365 L 1261 365 L 1262 364 L 1263 364 L 1264 363 L 1270 363 L 1271 362 L 1275 362 L 1276 361 L 1286 361 L 1287 362 L 1290 362 L 1291 363 L 1292 363 L 1293 364 L 1295 364 L 1296 365 L 1297 365 L 1298 366 L 1300 366 L 1301 367 L 1303 367 L 1304 368 L 1308 368 L 1309 369 L 1311 369 L 1312 370 L 1316 370 L 1317 371 L 1323 371 L 1324 372 L 1333 372 L 1334 371 L 1342 371 L 1343 370 L 1347 370 L 1348 369 L 1350 369 L 1351 368 L 1353 368 L 1354 367 L 1355 367 L 1356 366 L 1358 366 L 1359 365 L 1361 365 L 1362 364 L 1370 364 L 1371 363 L 1373 363 L 1374 362 L 1375 362 L 1376 361 L 1378 361 L 1379 360 L 1380 360 L 1382 358 L 1383 358 L 1392 348 L 1394 345 L 1395 343 L 1396 341 L 1397 338 L 1398 335 L 1399 335 L 1399 600 L 0 600 Z" fill="#1d4ed8"/>
</svg>